#!OML:ASF E:\motion texture\Top Level 1\Subject 1\Session 1\male.ASF
:FULLY-SPECIFIED
:DEGREES
654
root -29.8754 17.9195 5.8542 9.52199 -84.6149 -2.98661
lowerback -1.70457 -3.3024 -1.50839
upperback -2.21515 -4.40819 2.0292
thorax -1.0461 -2.18488 2.88202
lowerneck -4.72141 -0.119814 -7.31142
upperneck -23.5286 0.618413 11.1737
head -6.34387 -0.326115 4.93659
rclavicle 3.62161e-014 -2.74323e-014
rhumerus -19.523 8.70916 -89.9122
rradius 95.2401
rwrist -33.9742
rhand -12.3093 -54.995
rfingers 7.12502
rthumb 13.759 -444.52
lclavicle 3.62161e-014 -2.74323e-014
lhumerus -4.80418 -28.5113 100.508
lradius 93.0457
lwrist 4.99192
lhand -12.3345 54.0449
lfingers 7.12502
lthumb 13.7347 -276.428
rfemur -33.5794 -2.93986 17.2693
rtibia 24.5789
rfoot 1.68788 -13.4499
rtoes 3.19649
lfemur -2.29017 2.59525 -21.8757
ltibia 19.4119
lfoot -13.4631 -2.51813
ltoes -4.99829
655
root -30.0229 17.9127 5.85724 10.0442 -84.6835 -3.49204
lowerback -1.78451 -3.31754 -1.44752
upperback -2.27753 -4.4295 2.08002
thorax -1.0648 -2.19608 2.89732
lowerneck -4.6099 0.0160974 -7.24954
upperneck -23.6718 0.783895 11.0619
head -6.42753 -0.250367 4.88901
rclavicle -1.63003e-014 9.14409e-015
rhumerus -19.6372 8.1254 -89.5498
rradius 95.5469
rwrist -34.0684
rhand -12.3422 -55.1243
rfingers 7.12502
rthumb 13.7272 -444.651
lclavicle -1.63003e-014 9.14409e-015
lhumerus -3.89155 -28.1896 100.033
lradius 94.0401
lwrist 5.58702
lhand -12.2909 53.8851
lfingers 7.12502
lthumb 13.7767 -276.591
rfemur -33.4881 -2.82255 17.5098
rtibia 23.9695
rfoot 2.00326 -13.1431
rtoes 3.5284
lfemur -2.17245 2.67807 -21.7176
ltibia 20.059
lfoot -13.4503 -2.70148
ltoes -5.81826
656
root -30.1717 17.9061 5.8593 10.6818 -84.7387 -4.12267
lowerback -1.86478 -3.33376 -1.37741
upperback -2.33958 -4.45245 2.1312
thorax -1.08354 -2.20829 2.90778
lowerneck -4.50388 0.147919 -7.18644
upperneck -23.7837 0.944501 10.9507
head -6.49943 -0.175741 4.83991
rclavicle -3.32964e-015 -1.98785e-015
rhumerus -19.7718 7.57273 -89.1786
rradius 95.8195
rwrist -34.1102
rhand -12.3861 -55.2386
rfingers 7.12502
rthumb 13.6849 -444.769
lclavicle -3.32964e-015 -1.98785e-015
lhumerus -2.9856 -27.8566 99.5723
lradius 95.0159
lwrist 6.30755
lhand -12.2527 53.7257
lfingers 7.12502
lthumb 13.8135 -276.753
rfemur -33.3616 -2.70092 17.7723
rtibia 23.4345
rfoot 2.28584 -12.8528
rtoes 3.93915
lfemur -2.08157 2.75976 -21.5321
ltibia 20.7624
lfoot -13.3889 -2.91789
ltoes -6.66565
657
root -30.3221 17.8999 5.86046 11.4348 -84.7813 -4.88073
lowerback -1.94513 -3.34996 -1.29806
upperback -2.40067 -4.47561 2.18221
thorax -1.10198 -2.2208 2.91287
lowerneck -4.39573 0.275741 -7.12319
upperneck -23.8709 1.10046 10.8409
head -6.56295 -0.102398 4.79008
rclavicle -6.30955e-014 7.55382e-015
rhumerus -19.9321 7.05145 -88.8004
rradius 96.0527
rwrist -34.1031
rhand -12.4395 -55.3356
rfingers 7.12502
rthumb 13.6335 -444.869
lclavicle -6.30955e-014 7.55382e-015
lhumerus -2.08867 -27.5158 99.1301
lradius 95.97
lwrist 7.13856
lhand -12.2092 53.5825
lfingers 7.12502
lthumb 13.8554 -276.899
rfemur -33.1973 -2.57569 18.056
rtibia 22.9709
rfoot 2.53351 -12.5768
rtoes 4.42251
lfemur -2.01452 2.84217 -21.3191
ltibia 21.5208
lfoot -13.2763 -3.16298
ltoes -7.54755
658
root -30.4736 17.894 5.86063 12.2948 -84.8117 -5.75526
lowerback -2.0248 -3.36575 -1.21076
upperback -2.46078 -4.49845 2.23261
thorax -1.12048 -2.23333 2.91292
lowerneck -4.29315 0.397656 -7.05766
upperneck -23.9285 1.24904 10.7311
head -6.61486 -0.0314727 4.73863
rclavicle -7.75384e-014 2.38542e-014
rhumerus -20.116 6.56213 -88.4168
rradius 96.2413
rwrist -34.0473
rhand -12.4947 -55.4333
rfingers 7.12502
rthumb 13.5802 -444.97
lclavicle -7.75384e-014 2.38542e-014
lhumerus -1.20074 -27.1705 98.7069
lradius 96.9012
lwrist 8.06551
lhand -12.1624 53.4555
lfingers 7.12502
lthumb 13.9005 -277.029
rfemur -33.0012 -2.44249 18.3577
rtibia 22.5789
rfoot 2.74351 -12.3207
rtoes 4.97863
lfemur -1.9797 2.9221 -21.0799
ltibia 22.3397
lfoot -13.1145 -3.42786
ltoes -8.46821
659
root -30.6264 17.8885 5.85994 13.2563 -84.8287 -6.74304
lowerback -2.104 -3.38171 -1.11455
upperback -2.51852 -4.52176 2.28206
thorax -1.13759 -2.2463 2.90696
lowerneck -4.19518 0.514735 -6.99482
upperneck -23.9576 1.39263 10.627
head -6.65587 0.038149 4.68837
rclavicle 1.95554e-014 5.56597e-015
rhumerus -20.3264 6.10818 -88.0303
rradius 96.3834
rwrist -33.9508
rhand -12.5633 -55.5036
rfingers 7.12502
rthumb 13.5141 -445.045
lclavicle 1.95554e-014 5.56597e-015
lhumerus -0.324782 -26.8197 98.3045
lradius 97.8073
lwrist 9.06698
lhand -12.1006 53.3469
lfingers 7.12502
lthumb 13.9601 -277.142
rfemur -32.7698 -2.30313 18.6762
rtibia 22.2541
rfoot 2.9132 -12.0837
rtoes 5.5997
lfemur -1.97425 2.99859 -20.8155
ltibia 23.2177
lfoot -12.905 -3.70862
ltoes -9.41008
